<svg width="47" height="45" viewBox="0 0 47 45" fill="none" xmlns="http://www.w3.org/2000/svg">
<g filter="url(#filter0_d_73_212)">
<path d="M19.4015 33.2194H27.7549V21.0613H19.4015V33.2194ZM26.2408 31.7441H20.9155V22.5365H26.1886V31.7441H26.2408Z" fill="#81B3D2"/>
<path d="M41.9036 20.0431L43 18.9748L37.8313 13.9386V0.203483H30.6265V6.91843L23.4739 0L4 19.0257L5.09639 20.094L9.16867 16.126V35.3552H7.13253V36.8305H40.494V35.3552H37.8313V16.0752L41.9036 20.0431ZM32.1406 1.72961H36.2651V12.4633L32.1406 8.44455V1.72961ZM36.3173 35.3043H10.7349V14.5999L23.4739 2.13657L36.2651 14.5999V35.3043H36.3173Z" fill="#81B3D2"/>
<path d="M19.5582 13.8369C19.5582 16.0243 21.3855 17.8048 23.5783 17.8048C25.8233 17.8048 27.6506 16.0243 27.6506 13.8369C27.6506 11.6494 25.8233 9.9198 23.5783 9.9198C21.3333 9.9198 19.5582 11.6494 19.5582 13.8369ZM23.5783 11.2933C24.9879 11.2933 26.1888 12.4125 26.1888 13.8369C26.1888 15.2104 25.0402 16.3804 23.5783 16.3804C22.1687 16.3804 20.9679 15.2612 20.9679 13.8369C20.9679 12.4633 22.1687 11.2933 23.5783 11.2933Z" fill="#81B3D2"/>
<path d="M14.3895 21.0613H12.8232V23.0452H14.3895V21.0613Z" fill="#81B3D2"/>
<path d="M17.4698 21.0613H15.9036V23.0452H17.4698V21.0613Z" fill="#81B3D2"/>
<path d="M14.3895 24.1128H12.8232V26.0968H14.3895V24.1128Z" fill="#81B3D2"/>
<path d="M17.4698 24.1128H15.9036V26.0968H17.4698V24.1128Z" fill="#81B3D2"/>
<path d="M31.0443 21.0613H29.478V23.0452H31.0443V21.0613Z" fill="#81B3D2"/>
<path d="M34.1769 21.0613H32.6106V23.0452H34.1769V21.0613Z" fill="#81B3D2"/>
<path d="M31.0443 24.1128H29.478V26.0968H31.0443V24.1128Z" fill="#81B3D2"/>
<path d="M34.1769 24.1128H32.6106V26.0968H34.1769V24.1128Z" fill="#81B3D2"/>
</g>
<defs>
<filter id="filter0_d_73_212" x="0" y="0" width="47" height="44.8304" filterUnits="userSpaceOnUse" color-interpolation-filters="sRGB">
<feFlood flood-opacity="0" result="BackgroundImageFix"/>
<feColorMatrix in="SourceAlpha" type="matrix" values="0 0 0 0 0 0 0 0 0 0 0 0 0 0 0 0 0 0 127 0" result="hardAlpha"/>
<feOffset dy="4"/>
<feGaussianBlur stdDeviation="2"/>
<feComposite in2="hardAlpha" operator="out"/>
<feColorMatrix type="matrix" values="0 0 0 0 0 0 0 0 0 0 0 0 0 0 0 0 0 0 0.25 0"/>
<feBlend mode="normal" in2="BackgroundImageFix" result="effect1_dropShadow_73_212"/>
<feBlend mode="normal" in="SourceGraphic" in2="effect1_dropShadow_73_212" result="shape"/>
</filter>
</defs>
</svg>
